<svg width="163" height="37" viewBox="0 0 163 37" fill="none" xmlns="http://www.w3.org/2000/svg">
<path d="M15.5766 0.616318C13.6011 1.13859 11.8233 1.60283 11.7574 1.71889C11.6257 1.83495 13.4036 2.70539 15.6424 3.63388C25.1903 7.57992 29.0095 13.557 25.3879 18.7797L24.0051 20.7527L31.1166 20.3465C35.4625 20.1144 37.9647 20.1144 37.5697 20.4626C37.2404 20.7527 29.6679 22.7838 20.7785 24.9889C11.8891 27.136 4.51419 29.051 4.31665 29.2251C4.11911 29.3412 5.37021 30.5598 7.14809 31.9525C17.552 40.3088 34.8699 36.5949 39.8743 24.8729C43.6276 15.9943 39.3475 6.18719 29.7996 2.1251C24.7294 -0.0800438 20.3176 -0.544285 15.5766 0.616318Z" fill="black"/>
<path d="M106.842 0.674355C106.578 0.906476 106.381 4.44633 106.381 8.56649V15.9944H108.356H110.332V12.4545V8.91467L113.097 12.0483C116.456 15.8203 116.719 15.9944 119.419 15.9944H121.592L117.904 11.9903C115.929 9.7271 114.283 7.75407 114.283 7.57997C114.283 7.40588 115.468 5.95512 116.916 4.33027C120.011 0.906476 120.143 0.326172 117.904 0.326172C116.719 0.326172 115.6 1.19663 113.492 3.63391L110.661 6.94164L110.332 3.74997C110.068 1.1386 109.805 0.616323 108.686 0.442232C107.895 0.326172 107.105 0.442232 106.842 0.674355Z" fill="black"/>
<path d="M123.963 0.732385C123.699 0.906476 123.502 4.44633 123.502 8.56649V15.9944H125.477H127.453V8.16028C127.453 0.326172 127.453 0.326172 125.938 0.326172C125.082 0.326172 124.16 0.500263 123.963 0.732385Z" fill="black"/>
<path d="M133.247 1.19679C129.296 3.11177 130.547 7.81218 135.354 9.43702C140.885 11.352 138.514 14.3115 132.588 12.9188C130.942 12.5126 130.744 12.6287 130.744 13.9053C130.744 15.5882 131.798 15.9944 136.078 15.9944C138.712 15.9944 139.7 15.7042 140.951 14.5436C144.177 11.7582 142.597 8.45051 137.132 6.41947C135.354 5.78114 134.695 5.20084 134.827 4.50449C135.024 3.7501 135.749 3.51798 138.185 3.57601C140.951 3.57601 141.28 3.45995 141.28 2.29935C141.28 0.268312 136.539 -0.370016 133.247 1.19679Z" fill="black"/>
<path d="M54.4944 2.18294C54.6261 3.28553 55.0871 3.51766 56.9966 3.51766H59.3013L59.4988 9.72701L59.6964 15.9944H61.606H63.5814V9.55291C63.5814 3.16947 63.5814 3.11144 65.03 3.4016C66.6104 3.80781 68.1907 2.93735 68.1907 1.71869C68.1907 1.08034 66.6762 0.90625 61.2109 0.90625C54.3627 0.90625 54.2969 0.90625 54.4944 2.18294Z" fill="black"/>
<path d="M70.8223 6.76741C70.8223 12.4545 70.8881 12.6286 72.7318 14.3115C74.4439 15.7623 75.1682 15.9944 78.3947 15.9944C81.4237 15.9944 82.3456 15.7623 83.6625 14.5436C85.177 13.2089 85.3087 12.7446 85.3087 6.99954V0.90625H83.3333H81.3579V6.30316C81.3579 12.1643 80.8969 13.0928 77.9338 13.0928C75.4316 13.0928 74.7731 11.642 74.7731 5.89694V0.90625H72.7977H70.8223V6.76741Z" fill="black"/>
<path d="M89.2617 8.45032V15.9944H91.2371C93.1467 15.9944 93.2126 15.9364 93.2126 13.0928C93.2126 9.32079 94.5954 9.20472 97.0317 12.8027C98.7438 15.356 100.522 16.3426 102.695 15.8783C103.551 15.7623 103.287 15.1239 101.378 12.6286L99.0071 9.49488L100.39 8.39229C101.312 7.57985 101.773 6.53528 101.773 4.96844C101.773 1.77672 100.127 0.90625 94.0686 0.90625H89.2617V8.45032ZM97.4268 4.50419C98.4145 5.95497 97.2293 7.52182 94.9246 7.75394C93.3443 7.92804 93.2126 7.81197 93.2126 5.54875C93.2126 3.28553 93.3443 3.16947 94.9246 3.34356C95.9123 3.45963 97.0317 3.98191 97.4268 4.50419Z" fill="black"/>
<path d="M145.888 8.45032V15.9944H147.864C149.839 15.9944 149.839 15.9364 149.839 12.8027V9.61094H153.461H157.082V12.8027C157.082 15.9364 157.082 15.9944 159.058 15.9944H161.033V8.45032V0.90625H159.058C157.148 0.90625 157.082 0.964281 157.082 3.80781V6.70938H153.461H149.839V3.80781C149.839 0.964281 149.773 0.90625 147.864 0.90625H145.888V8.45032Z" fill="black"/>
<path d="M5.76587 5.78065C2.40765 8.97233 1.3541 10.7713 0.366384 15.0075C-0.423785 18.5474 0.0371471 22.1453 2.01257 26.1494L2.93443 28.2385L5.43664 27.31C10.902 25.337 13.6676 22.4355 14.8528 17.3868C15.643 14.1371 15.0504 9.84279 13.47 7.11535C12.4165 5.25837 10.1118 3.22729 9.25579 3.22729C8.79486 3.22729 7.21452 4.38791 5.76587 5.78065Z" fill="black"/>
<path d="M59.3663 21.1C59.037 21.6222 53.0449 35.6073 53.0449 35.9555C53.0449 36.0136 53.9668 35.9555 55.0862 35.8395C56.4031 35.6654 57.2592 35.1431 57.4567 34.5048C57.7859 33.5763 58.4444 33.4022 61.6051 33.4022C64.7658 33.4022 65.4243 33.5763 65.7535 34.5048C66.0169 35.5493 70.1653 36.5938 70.1653 35.6073C70.1653 35.3752 68.7825 31.8935 67.1363 27.8894L64.1073 20.6357H61.9343C60.6832 20.6357 59.5638 20.8679 59.3663 21.1ZM62.7904 26.961C63.9098 30.1526 63.7781 30.5008 61.6051 30.5008C60.5515 30.5008 59.6297 30.2106 59.6297 29.9205C59.6297 28.8759 61.2759 24.6978 61.6709 24.6978C61.8685 24.6978 62.3953 25.6843 62.7904 26.961Z" fill="black"/>
<path d="M72.7993 28.1803V35.7239H74.7747H76.7502V28.1803V20.6367H74.7747H72.7993V28.1803Z" fill="black"/>
<path d="M80.7004 28.1803V35.7239H82.6759C84.5854 35.7239 84.6513 35.6658 84.6513 32.8225C84.6513 30.7915 84.9147 29.9211 85.5732 29.9211C86.0341 29.9211 87.351 31.1977 88.4704 32.8225C90.3142 35.4337 90.7751 35.7239 92.8822 35.7239H95.1869L92.7505 32.5324L90.38 29.2828L91.7628 28.4124C92.8164 27.7741 93.2115 26.9617 93.2115 25.2789C93.2115 21.9133 91.0385 20.6367 85.2439 20.6367H80.7004V28.1803ZM88.9314 25.5691C88.9314 27.1358 88.668 27.3099 86.8243 27.484C84.7171 27.658 84.6513 27.6 84.6513 25.5691C84.6513 23.5381 84.7171 23.4801 86.8243 23.6542C88.668 23.8282 88.9314 24.0023 88.9314 25.5691Z" fill="black"/>
<path d="M97.8196 28.1806V35.7245H102.429C104.997 35.7245 107.236 35.7825 107.499 35.8405C107.697 35.9566 107.96 35.4343 108.026 34.6799C108.158 33.5193 107.828 33.4033 104.931 33.4033H101.77V27.7164C101.77 21.8553 101.31 20.6367 99.0048 20.6367C97.9513 20.6367 97.8196 21.275 97.8196 28.1806Z" fill="black"/>
<path d="M110.464 28.2392L110.661 35.9573H112.637H114.612V28.4133V20.9273L112.439 20.7532L110.266 20.5791L110.464 28.2392Z" fill="black"/>
<path d="M118.234 28.1234V35.725H119.881C121.527 35.725 121.527 35.6669 121.593 30.6186C121.593 26.4986 121.724 25.7443 122.383 26.6147C122.844 27.1949 124.556 29.5741 126.202 31.8952C129.099 35.899 129.428 36.1311 131.338 35.841L133.379 35.6089V28.1234V20.6379H131.733C130.153 20.6379 130.153 20.7539 129.955 25.6282L129.758 30.6766L126.136 25.8023C122.975 21.5083 122.251 20.928 120.407 20.7539L118.234 20.5798V28.1234Z" fill="black"/>
<path d="M137.331 28.1803V35.7239H142.598C147.8 35.7239 147.866 35.7239 147.866 34.2732C147.866 32.9386 147.669 32.8225 144.574 32.8225C141.347 32.8225 141.281 32.7645 141.281 31.0817C141.281 29.3989 141.413 29.3408 144.245 29.3408C146.747 29.3408 147.208 29.1668 147.208 28.1803C147.208 27.1938 146.747 27.0197 144.245 27.0197C141.413 27.0197 141.281 26.9617 141.281 25.3369C141.281 23.7122 141.413 23.5961 144.442 23.422C147.076 23.248 147.537 23.0739 147.735 21.9133C147.932 20.6947 147.8 20.6367 142.664 20.6367H137.331V28.1803Z" fill="black"/>
<path d="M152.606 21.9703C149.774 24.64 150.96 27.4837 155.832 29.6891C159.191 31.14 159.586 31.9525 157.544 33.0552C156.82 33.4614 155.701 33.4614 153.791 33.0552C151.223 32.4168 151.157 32.4748 151.157 33.8096C151.157 36.7695 158.73 37.1177 161.495 34.2739C164.261 31.4882 163.142 28.7025 158.73 27.0194C155.306 25.7427 154.647 24.8721 155.964 23.6534C156.886 22.8989 157.479 22.8409 159.388 23.3632C161.759 24.0016 161.759 24.0016 161.561 22.4927C161.364 21.0418 161.1 20.9257 157.742 20.7516C154.581 20.6355 153.857 20.8096 152.606 21.9703Z" fill="black"/>
</svg>
