<svg width="80" height="61" viewBox="0 0 80 61" fill="none" xmlns="http://www.w3.org/2000/svg">
<path d="M20.5557 1.08784C15.2897 2.57747 11.779 4.58275 7.87823 8.13494C4.10749 11.7444 2.22212 14.6664 0.856857 19.3072C-2.45879 30.4794 4.10749 42.7975 16.0698 47.7821L20.1006 49.5009L22.181 48.4123C25.1066 46.8654 29.8525 46.9799 32.388 48.5842C34.9235 50.2457 35.5736 50.1884 40.7096 47.8966C45.5856 45.7195 50.5916 42.1673 50.5916 40.9068C50.5916 40.162 43.2451 34.9483 42.2049 34.9483C41.9449 34.9483 40.7096 35.8077 39.4094 36.839C36.5488 39.1307 33.2332 40.1047 28.0322 40.1047C21.5959 40.1047 16.3299 37.2973 13.3393 32.4274C11.3239 29.0471 11.3239 21.3697 13.3393 17.9894C15.6797 14.0935 22.051 10.3121 26.2768 10.3121C27.8371 10.3121 27.8371 10.2548 27.8371 5.15568V-0.000732422L26.0818 0.0565605C25.0416 0.0565605 22.5711 0.514908 20.5557 1.08784Z" fill="black"/>
<path d="M25.7564 16.0416C21.3356 17.1875 17.4348 21.6566 17.4348 25.4953C17.4348 28.0163 19.9053 31.9697 22.5058 33.5167C25.5614 35.3501 29.8522 35.4074 32.9728 33.7459C35.0532 32.6572 35.9634 32.6572 35.9634 33.8604C35.9634 34.1469 36.1584 34.3761 36.4835 34.3761C36.7436 34.3761 37.5237 34.3761 38.2388 34.3761C39.5391 34.3761 39.5391 34.0896 39.4091 25.3808L39.214 16.3854H37.5887C36.6785 16.3854 35.9634 16.6719 35.9634 17.0157C35.9634 18.3335 35.0532 18.3907 33.2329 17.3021C31.0225 15.8698 28.0969 15.4114 25.7564 16.0416ZM33.2979 20.3388C37.0686 23.3754 37.0686 27.4434 33.2979 30.3081C30.7624 32.3135 28.2269 32.5999 25.2363 31.2249C20.1003 28.8758 20.2954 21.3701 25.5614 19.4221C28.2269 18.5053 31.4775 18.8491 33.2979 20.3388Z" fill="black"/>
<path d="M51.0467 16.615C49.0963 17.9901 47.9911 18.1047 47.9911 16.9015C47.9911 16.3859 47.406 16.0421 46.3658 16.0421H44.7405V25.2093V34.3765H46.6909H48.6412V27.2146C48.6412 20.7403 48.7713 20.0527 49.8765 19.4798C50.5916 19.1933 51.7619 18.9068 52.477 18.9068C53.7772 18.9068 54.8825 17.0734 54.1673 16.0421C53.5822 15.1827 52.9321 15.3546 51.0467 16.615Z" fill="black"/>
<path d="M66.2603 16.0427C61.5144 17.0166 57.7437 20.9698 57.7437 25.0375C57.7437 30.6521 61.7744 34.4334 68.1457 34.8345C71.5263 35.0636 72.2415 34.8917 74.907 33.2876C76.5323 32.2563 77.8976 31.3396 77.8976 31.2251C77.8976 31.1105 77.3125 30.7094 76.5973 30.3657C75.5571 29.9073 74.907 30.0219 73.4117 30.9959C71.8514 32.0271 70.8762 32.199 68.1457 31.9699C64.44 31.6261 62.6196 30.4803 61.9695 27.9021L61.5144 26.3552H70.6812C80.8882 26.3552 80.6931 26.4125 78.8728 22.4594C76.5323 17.6468 71.4613 15.0114 66.2603 16.0427ZM73.5417 20.6833C74.5819 21.6573 75.2321 22.7458 75.102 23.0896C74.842 23.8917 63.0097 24.35 62.1645 23.6052C61.1893 22.7458 62.9447 20.1677 65.1551 19.1937C67.9506 17.9333 71.2663 18.5635 73.5417 20.6833Z" fill="black"/>
<path d="M23.2216 52.0791C22.1814 53.0532 21.3362 54.371 21.3362 55.1731C21.3362 56.8347 24.0017 59.9286 25.9521 60.4443C28.9427 61.3037 33.0385 58.2097 33.0385 55.0585C33.0385 54.4283 32.2584 53.1678 31.3482 52.1937C29.0727 49.7873 25.8871 49.73 23.2216 52.0791Z" fill="black"/>
</svg>
