<svg width="22" height="22" viewBox="0 0 22 22" fill="none" xmlns="http://www.w3.org/2000/svg">
<path d="M21.7863 0.214811C21.6909 0.119464 21.5712 0.0522475 21.4401 0.0205506C21.309 -0.0111463 21.1718 -0.00609663 21.0434 0.0351444L0.510095 6.63514C0.375069 6.67829 0.255443 6.75965 0.165696 6.86938C0.0759483 6.9791 0.0199256 7.11249 0.00440776 7.25339C-0.0111101 7.39429 0.0145421 7.53667 0.0782598 7.6633C0.141978 7.78992 0.241029 7.89537 0.363428 7.96687L7.62782 12.2048L14.6678 7.33327L9.79629 14.3733L14.0342 21.6333C14.0985 21.7445 14.1908 21.837 14.302 21.9013C14.4132 21.9657 14.5393 21.9997 14.6678 21.9999C14.6943 21.9999 14.7207 21.9985 14.747 21.9955C14.8879 21.9802 15.0213 21.9244 15.1312 21.8349C15.241 21.7453 15.3226 21.6259 15.3659 21.491L21.9659 0.957677C22.0072 0.829303 22.0122 0.692045 21.9805 0.560988C21.9488 0.429931 21.8816 0.31015 21.7863 0.214811Z" fill="#61BE6B"/>
</svg>
