<svg width="19" height="19" viewBox="0 0 19 19" fill="none" xmlns="http://www.w3.org/2000/svg">
<path d="M17.8123 8.90625C17.6548 8.90625 17.5038 8.84369 17.3924 8.73234C17.2811 8.62099 17.2185 8.46997 17.2185 8.3125C17.2165 6.58093 16.5277 4.92087 15.3033 3.69647C14.0789 2.47206 12.4188 1.78329 10.6873 1.78125C10.5298 1.78125 10.3788 1.71869 10.2674 1.60734C10.1561 1.49599 10.0935 1.34497 10.0935 1.1875C10.0935 1.03003 10.1561 0.879005 10.2674 0.767655C10.3788 0.656306 10.5298 0.59375 10.6873 0.59375C12.7337 0.596107 14.6956 1.41009 16.1426 2.85712C17.5897 4.30416 18.4036 6.26608 18.406 8.3125C18.406 8.46997 18.3435 8.62099 18.2321 8.73234C18.1208 8.84369 17.9697 8.90625 17.8123 8.90625Z" fill="#61BE6B"/>
<path d="M14.2498 8.90625C14.0923 8.90625 13.9413 8.84369 13.8299 8.73234C13.7186 8.621 13.656 8.46997 13.656 8.3125C13.6551 7.52543 13.342 6.77086 12.7854 6.21432C12.2289 5.65777 11.4743 5.34469 10.6873 5.34375C10.5298 5.34375 10.3788 5.28119 10.2674 5.16984C10.1561 5.05849 10.0935 4.90747 10.0935 4.75C10.0935 4.59253 10.1561 4.44151 10.2674 4.33016C10.3788 4.21881 10.5298 4.15625 10.6873 4.15625C11.7892 4.15751 12.8456 4.5958 13.6248 5.37498C14.404 6.15415 14.8422 7.21058 14.8435 8.3125C14.8435 8.46997 14.781 8.621 14.6696 8.73234C14.5583 8.84369 14.4072 8.90625 14.2498 8.90625Z" fill="#61BE6B"/>
<path d="M12.4852 11.5947L11.0334 13.4098C8.78516 12.0883 6.9115 10.2146 5.58994 7.96632L7.40504 6.5146C7.61757 6.34426 7.76777 6.10839 7.83221 5.84375C7.89665 5.57911 7.87171 5.30058 7.76128 5.0516L6.1071 1.32701C5.98866 1.05972 5.77907 0.843231 5.51576 0.716198C5.25245 0.589164 4.95255 0.559856 4.66963 0.633507L1.52275 1.45051C1.22853 1.52669 0.972534 1.7083 0.803414 1.96083C0.634294 2.21336 0.56383 2.51922 0.60541 2.82029C1.15804 6.75532 2.97671 10.4035 5.7865 13.2133C8.59629 16.0231 12.2444 17.8417 16.1795 18.3944C16.4802 18.4359 16.7857 18.3656 17.0381 18.1968C17.2905 18.0281 17.4721 17.7726 17.5487 17.4788L18.3657 14.3319C18.4389 14.0492 18.4095 13.7497 18.2826 13.4867C18.1557 13.2237 17.9396 13.0142 17.6728 12.8956L13.9482 11.2397C13.6993 11.129 13.4208 11.1038 13.1562 11.168C12.8915 11.2323 12.6556 11.3823 12.4852 11.5947Z" fill="#61BE6B"/>
</svg>
