<svg width="14" height="20" viewBox="0 0 14 20" fill="none" xmlns="http://www.w3.org/2000/svg">
<path d="M7 0C3.13 0 0 3.13 0 7C0 8.74 0.5 10.37 1.41 11.84C2.36 13.38 3.61 14.7 4.57 16.24C5.04 16.99 5.38 17.69 5.74 18.5C6 19.05 6.21 20 7 20C7.79 20 8 19.05 8.25 18.5C8.62 17.69 8.95 16.99 9.42 16.24C10.38 14.71 11.63 13.39 12.58 11.84C13.5 10.37 14 8.74 14 7C14 3.13 10.87 0 7 0ZM7 9.75C6.33696 9.75 5.70107 9.48661 5.23223 9.01777C4.76339 8.54893 4.5 7.91304 4.5 7.25C4.5 6.58696 4.76339 5.95107 5.23223 5.48223C5.70107 5.01339 6.33696 4.75 7 4.75C7.66304 4.75 8.29893 5.01339 8.76777 5.48223C9.23661 5.95107 9.5 6.58696 9.5 7.25C9.5 7.91304 9.23661 8.54893 8.76777 9.01777C8.29893 9.48661 7.66304 9.75 7 9.75Z" fill="#61BE6B"/>
</svg>
