<svg width="42" height="31" viewBox="0 0 42 31" fill="none" xmlns="http://www.w3.org/2000/svg">
<path d="M6.85126 8.77136C9.36496 8.77136 11.4027 7.03168 11.4027 4.88568C11.4027 2.73968 9.36496 1 6.85126 1C4.33756 1 2.2998 2.73968 2.2998 4.88568C2.2998 7.03168 4.33756 8.77136 6.85126 8.77136Z" stroke="white" stroke-width="2" stroke-miterlimit="10"/>
<path d="M17.9054 20.9842C11.0236 18.4175 11.4033 13.2129 6.20166 13.2129C4.83663 13.2519 3.53998 13.7323 2.57422 14.5568C1.60845 15.3813 1.04574 16.4883 1 17.6536V29.8657H11.4033V22.0944" stroke="white" stroke-width="2" stroke-miterlimit="10" stroke-linecap="square"/>
<path d="M23.1064 20.9842C29.9882 18.4175 29.6085 13.2129 34.8102 13.2129C36.1752 13.2519 37.4719 13.7323 38.4376 14.5568C39.4034 15.3813 39.9661 16.4883 40.0118 17.6536V29.8657H29.6085V22.0944" stroke="white" stroke-width="2" stroke-miterlimit="10" stroke-linecap="square"/>
<path d="M34.1608 8.77136C36.6745 8.77136 38.7123 7.03168 38.7123 4.88568C38.7123 2.73968 36.6745 1 34.1608 1C31.6471 1 29.6094 2.73968 29.6094 4.88568C29.6094 7.03168 31.6471 8.77136 34.1608 8.77136Z" stroke="white" stroke-width="2" stroke-miterlimit="10"/>
</svg>
