<svg width="11" height="11" viewBox="0 0 11 11" fill="none" xmlns="http://www.w3.org/2000/svg">
<g opacity="0.7" clip-path="url(#clip0_444_1188)">
<path d="M8.479 0.916992H9.1665C9.40962 0.916992 9.64278 1.01357 9.81469 1.18548C9.98659 1.35739 10.0832 1.59054 10.0832 1.83366V9.16699C10.0832 9.41011 9.98659 9.64327 9.81469 9.81517C9.64278 9.98708 9.40962 10.0837 9.1665 10.0837H1.83317C1.59006 10.0837 1.3569 9.98708 1.18499 9.81517C1.01308 9.64327 0.916504 9.41011 0.916504 9.16699V1.83366C0.916504 1.59054 1.01308 1.35739 1.18499 1.18548C1.3569 1.01357 1.59006 0.916992 1.83317 0.916992H2.52067" stroke="#61BE6B" stroke-width="2" stroke-miterlimit="10" stroke-linecap="square"/>
<path d="M7.33317 5.50033L5.49984 4.12533L3.6665 5.50033V0.916992H7.33317V5.50033Z" stroke="#61BE6B" stroke-width="2" stroke-miterlimit="10" stroke-linecap="square"/>
</g>
<defs>
<clipPath id="clip0_444_1188">
<rect width="11" height="11" fill="white"/>
</clipPath>
</defs>
</svg>
