<svg width="41" height="41" viewBox="0 0 41 41" fill="none" xmlns="http://www.w3.org/2000/svg">
<path d="M20.5 25.625C23.3305 25.625 25.625 23.3305 25.625 20.5C25.625 17.6695 23.3305 15.375 20.5 15.375C17.6695 15.375 15.375 17.6695 15.375 20.5C15.375 23.3305 17.6695 25.625 20.5 25.625Z" stroke="white" stroke-width="1.5" stroke-miterlimit="10" stroke-linecap="square"/>
<path d="M39.7188 23.0625V17.9375L34.2017 17.2482C33.8555 15.7868 33.2763 14.3907 32.4861 13.1136L35.9019 8.72275L32.2772 5.09809L27.8864 8.51391C26.6093 7.72375 25.2132 7.14446 23.7518 6.79831L23.0625 1.28125H17.9375L17.2482 6.79831C15.7868 7.14446 14.3907 7.72375 13.1136 8.51391L8.72275 5.09809L5.09809 8.72275L8.51391 13.1136C7.72375 14.3907 7.14446 15.7868 6.79831 17.2482L1.28125 17.9375V23.0625L6.79831 23.7518C7.14446 25.2132 7.72375 26.6093 8.51391 27.8864L5.09809 32.2772L8.72275 35.9019L13.1136 32.4861C14.3907 33.2763 15.7868 33.8555 17.2482 34.2017L17.9375 39.7188H23.0625L23.7518 34.2017C25.2132 33.8555 26.6093 33.2763 27.8864 32.4861L32.2772 35.9019L35.9019 32.2772L32.4861 27.8864C33.2763 26.6093 33.8555 25.2132 34.2017 23.7518L39.7188 23.0625Z" stroke="white" stroke-width="1.5" stroke-miterlimit="10" stroke-linecap="square"/>
</svg>
