<svg width="10" height="12" viewBox="0 0 10 12" fill="none" xmlns="http://www.w3.org/2000/svg">
<path d="M2.85714 10.4957C2.85714 10.7995 3.17857 11.0481 3.57143 11.0481H6.42857C6.82143 11.0481 7.14286 10.7995 7.14286 10.4957V9.94329H2.85714V10.4957ZM5 0C2.24286 0 0 1.73455 0 3.86683C0 5.18156 0.85 6.33608 2.14286 7.03764V8.28607C2.14286 8.58989 2.46429 8.83848 2.85714 8.83848H7.14286C7.53571 8.83848 7.85714 8.58989 7.85714 8.28607V7.03764C9.15 6.33608 10 5.18156 10 3.86683C10 1.73455 7.75714 0 5 0ZM6.42857 6.46314V7.73367H3.57143V6.46314C2.48571 5.87206 1.42857 5.26442 1.42857 3.86683C1.42857 2.3422 3.02857 1.10481 5 1.10481C6.97143 1.10481 8.57143 2.3422 8.57143 3.86683C8.57143 5.24232 7.49286 5.88311 6.42857 6.46314Z" fill="#44854B"/>
</svg>
