<svg width="38" height="34" viewBox="0 0 38 34" fill="none" xmlns="http://www.w3.org/2000/svg">
<path d="M12.1996 3.32141H2.86661C1.83571 3.32141 1 4.0579 1 4.96641V13.1914C1 14.0999 1.83571 14.8364 2.86661 14.8364H12.1996C13.2305 14.8364 14.0663 14.0999 14.0663 13.1914V4.96641C14.0663 4.0579 13.2305 3.32141 12.1996 3.32141Z" stroke="white" stroke-width="1.5" stroke-miterlimit="10" stroke-linecap="square"/>
<path d="M26.7555 2.15388L20.2075 7.92443C19.4844 8.5617 19.4844 9.59492 20.2075 10.2322L26.7555 16.0027C27.4786 16.64 28.651 16.64 29.3742 16.0027L35.9221 10.2322C36.6453 9.59492 36.6453 8.5617 35.9221 7.92443L29.3742 2.15388C28.651 1.51661 27.4786 1.51661 26.7555 2.15388Z" stroke="white" stroke-width="1.5" stroke-miterlimit="10" stroke-linecap="square"/>
<path d="M32.7314 21.4155H23.3983C22.3674 21.4155 21.5317 22.152 21.5317 23.0605V31.2854C21.5317 32.1939 22.3674 32.9304 23.3983 32.9304H32.7314C33.7623 32.9304 34.598 32.1939 34.598 31.2854V23.0605C34.598 22.152 33.7623 21.4155 32.7314 21.4155Z" stroke="white" stroke-width="1.5" stroke-miterlimit="10" stroke-linecap="square"/>
<path d="M12.1996 21.4155H2.86661C1.83571 21.4155 1 22.152 1 23.0605V31.2854C1 32.1939 1.83571 32.9304 2.86661 32.9304H12.1996C13.2305 32.9304 14.0663 32.1939 14.0663 31.2854V23.0605C14.0663 22.152 13.2305 21.4155 12.1996 21.4155Z" stroke="white" stroke-width="1.5" stroke-miterlimit="10" stroke-linecap="square"/>
</svg>
