<svg width="13" height="10" viewBox="0 0 13 10" fill="none" xmlns="http://www.w3.org/2000/svg">
<path d="M6.50691 4.231C3.81153 3.91502 2.94473 3.58832 2.94473 3.07953C2.94473 2.49576 4.144 2.08872 6.15069 2.08872C8.26425 2.08872 9.04792 2.54396 9.11917 3.21342H11.7433C11.6602 2.29224 10.4134 1.44604 7.93178 1.1729V0H4.3696V1.15683C2.06606 1.38177 0.21373 2.05659 0.21373 3.09024C0.21373 4.3274 2.48165 4.94331 5.79447 5.30214C8.76295 5.62348 9.35664 6.09479 9.35664 6.59287C9.35664 6.96241 8.77482 7.55154 6.15069 7.55154C3.70466 7.55154 2.74287 7.05881 2.61226 6.42684H0C0.142487 7.59974 2.08981 8.25849 4.3696 8.47807V9.64026H7.93178V8.48878C10.2472 8.29062 12.0876 7.68543 12.0876 6.58751C12.0876 5.06649 9.20228 4.54699 6.50691 4.231Z" fill="#44854B"/>
</svg>
