<svg width="14" height="12" viewBox="0 0 14 12" fill="none" xmlns="http://www.w3.org/2000/svg">
<path d="M4.66976 9.82832L1 10.6938L2.07934 7.75105L10.2452 1.20282C10.3254 1.13852 10.4206 1.08751 10.5253 1.05271C10.6301 1.01791 10.7424 1 10.8558 1C10.9692 1 11.0815 1.01791 11.1862 1.05271C11.291 1.08751 11.3862 1.13852 11.4664 1.20282L12.8356 2.30083C12.9158 2.36512 12.9794 2.44146 13.0228 2.52547C13.0662 2.60948 13.0885 2.69952 13.0885 2.79046C13.0885 2.88139 13.0662 2.97143 13.0228 3.05544C12.9794 3.13945 12.9158 3.21579 12.8356 3.28008L4.66976 9.82832Z" stroke="#44854B" stroke-miterlimit="10" stroke-linecap="square"/>
</svg>
