<svg width="10" height="9" viewBox="0 0 10 9" fill="none" xmlns="http://www.w3.org/2000/svg">
<path d="M9.66664 4.22205C9.57823 4.22205 9.49345 4.19279 9.43093 4.14072C9.36842 4.08865 9.3333 4.01803 9.3333 3.9444C9.33216 3.13468 8.94547 2.35841 8.25808 1.78585C7.57069 1.2133 6.63871 0.891214 5.66659 0.890259C5.57818 0.890259 5.4934 0.861007 5.43088 0.808937C5.36837 0.756868 5.33325 0.686247 5.33325 0.61261C5.33325 0.538973 5.36837 0.468352 5.43088 0.416282C5.4934 0.364213 5.57818 0.334961 5.66659 0.334961C6.81547 0.336063 7.91691 0.716696 8.7293 1.39336C9.54168 2.07002 9.99865 2.98745 9.99998 3.9444C9.99998 4.01803 9.96486 4.08865 9.90235 4.14072C9.83983 4.19279 9.75505 4.22205 9.66664 4.22205Z" fill="black"/>
<path d="M7.66662 4.22214C7.57821 4.22214 7.49342 4.19289 7.43091 4.14082C7.3684 4.08875 7.33328 4.01813 7.33328 3.94449C7.33275 3.57645 7.15698 3.2236 6.84453 2.96336C6.53208 2.70311 6.10846 2.55671 5.66659 2.55627C5.57818 2.55627 5.4934 2.52701 5.43088 2.47495C5.36837 2.42288 5.33325 2.35226 5.33325 2.27862C5.33325 2.20499 5.36837 2.13437 5.43088 2.0823C5.4934 2.03023 5.57818 2.00098 5.66659 2.00098C6.28522 2.00156 6.87831 2.20652 7.31575 2.57087C7.75319 2.93522 7.99925 3.42922 7.99995 3.94449C7.99995 4.01813 7.96484 4.08875 7.90232 4.14082C7.83981 4.19289 7.75502 4.22214 7.66662 4.22214Z" fill="black"/>
<path d="M6.67596 5.47927L5.86095 6.32804C4.59874 5.71005 3.54685 4.83389 2.80491 3.78254L3.82393 3.10368C3.94325 3.02403 4.02757 2.91373 4.06375 2.78998C4.09993 2.66623 4.08593 2.53598 4.02393 2.41955L3.09525 0.677848C3.02876 0.552859 2.91109 0.451624 2.76327 0.39222C2.61544 0.332816 2.44708 0.319111 2.28824 0.353552L0.521552 0.7356C0.35637 0.771224 0.212653 0.856148 0.117707 0.974238C0.0227616 1.09233 -0.0167975 1.23535 0.00654604 1.37614C0.316797 3.21625 1.33782 4.92221 2.91526 6.23613C4.49271 7.55005 6.54082 8.4005 8.74999 8.65892C8.91882 8.67833 9.09034 8.64546 9.23202 8.56655C9.3737 8.48764 9.47569 8.36817 9.51866 8.23079L9.97733 6.75924C10.0185 6.62705 10.0019 6.48699 9.9307 6.364C9.85947 6.24101 9.73814 6.14306 9.58833 6.0876L7.4973 5.31323C7.3576 5.26148 7.20127 5.24971 7.05269 5.27974C6.90411 5.30978 6.77164 5.37993 6.67596 5.47927Z" fill="black"/>
</svg>
