<svg width="18" height="18" viewBox="0 0 18 18" fill="none" xmlns="http://www.w3.org/2000/svg">
<path d="M16.9419 0.72727C16.8701 0.654134 16.78 0.602576 16.6814 0.578263C16.5828 0.55395 16.4795 0.557824 16.383 0.589457L0.934555 5.65196C0.832967 5.68506 0.742966 5.74747 0.675444 5.83163C0.607922 5.91579 0.565772 6.01811 0.554097 6.12618C0.542422 6.23426 0.561722 6.34347 0.609661 6.4406C0.657599 6.53773 0.732122 6.61861 0.82421 6.67346L6.28963 9.92415L11.5862 6.18746L7.9211 11.5875L11.1095 17.1562C11.1579 17.2416 11.2273 17.3125 11.311 17.3618C11.3947 17.4112 11.4896 17.4373 11.5862 17.4375C11.6061 17.4375 11.626 17.4363 11.6458 17.4341C11.7518 17.4223 11.8522 17.3795 11.9348 17.3109C12.0175 17.2422 12.0788 17.1506 12.1115 17.0471L17.077 1.29708C17.1081 1.19861 17.1119 1.09333 17.088 0.992803C17.0642 0.892277 17.0136 0.800399 16.9419 0.72727V0.72727Z" fill="#61BE6B"/>
</svg>
