<svg width="14" height="14" viewBox="0 0 14 14" fill="none" xmlns="http://www.w3.org/2000/svg">
<path d="M13.2119 0.578125H0.714681C0.644544 0.578125 0.587158 0.643336 0.587158 0.723037V1.88234C0.587158 1.96204 0.644544 2.02725 0.714681 2.02725H13.2119C13.2821 2.02725 13.3395 1.96204 13.3395 1.88234V0.723037C13.3395 0.643336 13.2821 0.578125 13.2119 0.578125ZM13.2119 11.8813H0.714681C0.644544 11.8813 0.587158 11.9465 0.587158 12.0262V13.1855C0.587158 13.2652 0.644544 13.3304 0.714681 13.3304H13.2119C13.2821 13.3304 13.3395 13.2652 13.3395 13.1855V12.0262C13.3395 11.9465 13.2821 11.8813 13.2119 11.8813ZM13.2119 6.22971H0.714681C0.644544 6.22971 0.587158 6.29492 0.587158 6.37462V7.53392C0.587158 7.61362 0.644544 7.67883 0.714681 7.67883H13.2119C13.2821 7.67883 13.3395 7.61362 13.3395 7.53392V6.37462C13.3395 6.29492 13.2821 6.22971 13.2119 6.22971Z" fill="#61BE6B"/>
</svg>
